<svg width="119" height="42" viewBox="0 0 119 42" fill="none" xmlns="http://www.w3.org/2000/svg">
<rect y="1" width="40" height="40" rx="8" fill="url(#paint0_linear_2005_1051)"/>
<path d="M22.625 16.625C23.3172 16.625 23.9939 16.4197 24.5695 16.0351C25.1451 15.6506 25.5937 15.1039 25.8586 14.4644C26.1235 13.8249 26.1928 13.1211 26.0578 12.4422C25.9227 11.7633 25.5894 11.1396 25.0999 10.6501C24.6104 10.1606 23.9868 9.8273 23.3078 9.69225C22.6289 9.5572 21.9252 9.62652 21.2856 9.89142C20.6461 10.1563 20.0994 10.6049 19.7149 11.1805C19.3303 11.7561 19.125 12.4328 19.125 13.125C19.125 14.0533 19.4938 14.9435 20.1501 15.5999C20.8065 16.2563 21.6967 16.625 22.625 16.625ZM22.625 11.375C22.9711 11.375 23.3095 11.4776 23.5973 11.6699C23.885 11.8622 24.1093 12.1355 24.2418 12.4553C24.3742 12.7751 24.4089 13.1269 24.3414 13.4664C24.2739 13.8059 24.1072 14.1177 23.8624 14.3624C23.6177 14.6072 23.3059 14.7739 22.9664 14.8414C22.6269 14.9089 22.2751 14.8742 21.9553 14.7418C21.6355 14.6093 21.3622 14.385 21.1699 14.0972C20.9776 13.8095 20.875 13.4711 20.875 13.125C20.875 12.6609 21.0594 12.2158 21.3876 11.8876C21.7158 11.5594 22.1609 11.375 22.625 11.375ZM29.987 22.3869C29.9203 22.4175 29.1678 22.7456 27.8356 22.7456C26.3208 22.7456 24.0567 22.3213 21.1977 20.5581C20.7625 21.7935 20.1975 22.9792 19.5122 24.0953C20.7431 24.4743 21.901 25.0589 22.9367 25.8245C25.0225 27.4148 26.125 29.6789 26.125 32.375C26.125 32.6071 26.0328 32.8296 25.8687 32.9937C25.7046 33.1578 25.4821 33.25 25.25 33.25C25.0179 33.25 24.7954 33.1578 24.6313 32.9937C24.4672 32.8296 24.375 32.6071 24.375 32.375C24.375 27.8141 20.5808 26.1723 18.4534 25.6102C18.3933 25.6867 18.3309 25.7644 18.2686 25.8398C16.1205 28.443 13.4288 29.797 10.4341 29.797C10.093 29.7986 9.75201 29.7829 9.4125 29.75C9.18044 29.7268 8.9671 29.6124 8.81941 29.4318C8.67173 29.2513 8.6018 29.0196 8.625 28.7875C8.64821 28.5554 8.76265 28.3421 8.94316 28.1944C9.12366 28.0467 9.35544 27.9768 9.5875 28C12.4225 28.2822 14.8889 27.1808 16.9156 24.7188C18.2817 23.0628 19.2125 21.0427 19.6773 19.5781C15.4205 17.1008 12.7014 19.2095 12.6719 19.2325C12.5827 19.3086 12.4792 19.366 12.3675 19.4014C12.2557 19.4367 12.138 19.4492 12.0213 19.4382C11.9046 19.4272 11.7914 19.3928 11.6882 19.3372C11.5851 19.2815 11.4941 19.2057 11.4208 19.1142C11.3476 19.0228 11.2934 18.9175 11.2616 18.8047C11.2297 18.6919 11.2209 18.5739 11.2356 18.4576C11.2502 18.3413 11.2881 18.2291 11.347 18.1278C11.4058 18.0264 11.4844 17.9379 11.5781 17.8675C11.7422 17.7363 15.6491 14.6956 21.3683 18.5861C26.3416 21.9669 29.2356 20.8075 29.263 20.7944C29.3678 20.7449 29.4814 20.7167 29.5972 20.7115C29.713 20.7063 29.8287 20.7241 29.9376 20.764C30.0465 20.8039 30.1463 20.865 30.2313 20.9438C30.3164 21.0226 30.3849 21.1175 30.433 21.223C30.481 21.3285 30.5076 21.4425 30.5112 21.5584C30.5148 21.6742 30.4954 21.7897 30.454 21.898C30.4126 22.0062 30.3501 22.1052 30.2701 22.1892C30.1901 22.2731 30.0943 22.3403 29.9881 22.3869H29.987Z" fill="white"/>
<path d="M49.148 9.4H57.296V12.2H52.228V17.66H56.204V20.46H52.228V29H49.148V9.4ZM58.773 9.4H61.853V29H58.773V9.4ZM66.5677 12.2H63.3477V9.4H72.8677V12.2H69.6477V29H66.5677V12.2ZM74.3589 9.4H78.7549L80.7149 23.428H80.7709L82.7309 9.4H87.1269V29H84.2149V14.16H84.1589L81.9189 29H79.3429L77.1029 14.16H77.0469V29H74.3589V9.4ZM89.4253 9.4H97.8253V12.2H92.5053V17.38H96.7333V20.18H92.5053V26.2H97.8253V29H89.4253V9.4ZM99.5972 9.4H107.997V12.2H102.677V17.38H106.905V20.18H102.677V26.2H107.997V29H99.5972V9.4ZM112.177 12.2H108.957V9.4H118.477V12.2H115.257V29H112.177V12.2Z" fill="url(#paint1_linear_2005_1051)"/>
<defs>
<linearGradient id="paint0_linear_2005_1051" x1="20" y1="1" x2="20" y2="41" gradientUnits="userSpaceOnUse">
<stop stop-color="#00BC7D"/>
<stop offset="1" stop-color="#009966"/>
</linearGradient>
<linearGradient id="paint1_linear_2005_1051" x1="83.5" y1="5" x2="83.5" y2="37" gradientUnits="userSpaceOnUse">
<stop stop-color="#00BC7D"/>
<stop offset="0.7" stop-color="#009966"/>
</linearGradient>
</defs>
</svg>
